<?xml version="1.0" encoding="UTF-8" standalone="no"?>
<!-- Created with Inkscape (http://www.inkscape.org/) -->

<svg
   width="275"
   height="205"
   viewBox="0 0 72.760414 54.239581"
   version="1.1"
   id="svg148"
   inkscape:version="1.1 (c68e22c387, 2021-05-23)"
   sodipodi:docname="logo.svg"
   xmlns:inkscape="http://www.inkscape.org/namespaces/inkscape"
   xmlns:sodipodi="http://sodipodi.sourceforge.net/DTD/sodipodi-0.dtd"
   xmlns="http://www.w3.org/2000/svg"
   xmlns:svg="http://www.w3.org/2000/svg">
  <sodipodi:namedview
     id="namedview150"
     pagecolor="#ffffff"
     bordercolor="#666666"
     borderopacity="1.0"
     inkscape:pageshadow="2"
     inkscape:pageopacity="0.0"
     inkscape:pagecheckerboard="0"
     inkscape:document-units="mm"
     showgrid="false"
     units="px"
     inkscape:zoom="0.62537879"
     inkscape:cx="150.3089"
     inkscape:cy="135.91763"
     inkscape:window-width="1500"
     inkscape:window-height="930"
     inkscape:window-x="-6"
     inkscape:window-y="-6"
     inkscape:window-maximized="1"
     inkscape:current-layer="layer1" />
  <defs
     id="defs145" />
  <g
     inkscape:label="Layer 1"
     inkscape:groupmode="layer"
     id="layer1">
    <path
       class="cls-1"
       d="m 44.726823,47.090586 a 9.4032915,9.4032915 0 0 0 1.04246,-1.27 10.035646,10.035646 0 0 0 0.67998,-1.20915 3.6618333,3.6618333 0 0 0 0.17462,-0.45508 13.316479,13.316479 0 0 0 0.94986,-4.61169 c 0.28046,-7.60413 -5.74675,-8.9535 -8.08567,-10.08856 -2.33892,-1.13507 -4.87627,-1.6854 -7.48506,-4.81277 -3.21204,-3.86292 1.97908,-8.80005 4.21216,-8.35025 a 39.891229,39.891229 0 0 1 5.842,1.78329 c -0.4392,-0.17463 -7.24164,-2.95275 -5.11175,-6.05631 0,0 -7.78668,0.85989 -10.12031,7.40833 -1.63248,4.56142 0.20109,8.95085 6.87917,12.02267 6.67808,3.07181 9.28952,4.54289 8.28146,9.55939 -0.85196,4.29683 -4.71488,7.59883 -11.08075,5.87111 -8.128,-2.9898 -11.83746,-9.07521 -12.57565,-16.64494 h -5.85258 a 25.74925,25.74925 0 0 0 11.86127,18.63725 c 10.38754,6.00604 18.96269,-0.55827 20.38879,-1.78329 z"
       id="path80"
       style="fill:#333132;stroke-width:0.264583" />
    <path
       class="cls-2"
       d="m 38.030223,1.3229567 a 25.74925,25.74925 0 0 0 -25.74925,25.7492493 26.029708,26.029708 0 0 0 0.21431,3.31523 h 5.84729 a 31.027687,31.027687 0 0 1 -0.1561,-3.13002 c 0,-11.62844 8.92968,-21.0528994 19.95223,-21.0528994 h 0.20637 l 0.15346,-0.0847 0.0794,0.0926 c 10.81882,0.24606 19.51567,9.5673294 19.51567,21.0396694 a 21.457708,21.457708 0 0 1 -7.56179,16.49941 32.043687,32.043687 0 0 1 -13.13127,8.69157 c 14.17108,-0.0609 26.36837,-11.19452 26.36837,-25.37619 A 25.751896,25.751896 0 0 0 38.030253,1.3229167 Z"
       id="path82"
       style="fill:#0076ba;stroke-width:0.264583" />
    <path
       class="cls-1"
       d="m 37.310553,12.784706 0.0344,-0.045 c -0.0556,0.11113 -0.09,0.15081 -0.0344,0.045 z"
       id="path84"
       style="fill:#333132;stroke-width:0.264583" />
    <path
       class="cls-2"
       d="m 47.438803,32.977706 a 0.83608332,0.83608332 0 0 0 -0.39423,0.3519 c -0.10583,0.21431 0.56356,1.38906 0.56356,1.38906 l 0.0661,-0.56092 c -0.0847,-0.46037 -0.15081,-0.83873 -0.23548,-1.18004 z"
       id="path86"
       style="fill:#0076ba;stroke-width:0.264583" />
    <path
       class="cls-2"
       d="m 46.555093,30.924536 -1.12448,0.39423 a 9.0169999,9.0169999 0 0 1 1.08479,1.29117 c 0.1905,-0.09 0.68792,-0.26458 0.74877,-0.30162 a 5.6541458,5.6541458 0 0 0 -0.70908,-1.38378 z"
       id="path88"
       style="fill:#0076ba;stroke-width:0.264583" />
    <path
       class="cls-2"
       d="m 45.300973,29.355566 -1.98967,0.64558 a 13.263562,13.263562 0 0 1 1.64042,0.9181 7.9904166,7.9904166 0 0 0 1.21443,-0.52916 c -0.23548,-0.30163 -0.52123,-0.64559 -0.86518,-1.03452 z"
       id="path90"
       style="fill:#0076ba;stroke-width:0.264583" />
    <path
       class="cls-2"
       d="m 43.507093,27.442626 a 2.2092708,2.2092708 0 0 0 -0.32014,0.0635 l -3.33375,0.80962 a 2.0955,2.0955 0 0 0 0.47095,0.40482 l 0.21432,0.10054 0.56356,0.24077 a 2.8336875,2.8336875 0 0 0 1.09537,0.0688 c 1.55311,-0.1905 1.95792,-0.59002 2.24896,-0.56356 h 0.12436 c -0.32544,-0.35984 -0.68527,-0.72496 -1.06363,-1.12448 z"
       id="path92"
       style="fill:#0076ba;stroke-width:0.264583" />
    <path
       class="cls-2"
       d="m 41.848153,25.722836 a 3.3311041,3.3311041 0 0 0 -0.56091,0.0556 c -1.00807,0.16933 -4.03225,0.82285 -5.06148,1.03981 a 20.47875,20.47875 0 0 0 2.11666,0.9525 2.50825,2.50825 0 0 0 0.56357,0 c 1.32291,-0.21431 2.42358,-0.65352 3.70416,-0.83344 l 0.33338,-0.0503 c -0.32544,-0.39952 -0.69586,-0.75406 -1.09538,-1.16416 z"
       id="path94"
       style="fill:#0076ba;stroke-width:0.264583" />
    <path
       class="cls-2"
       d="m 40.279173,24.087706 -0.29633,-0.30956 a 1.9870208,1.9870208 0 0 0 -0.79375,0.0767 c -0.92869,0.23812 -4.13279,0.84402 -5.21229,1.23296 a 11.268604,11.268604 0 0 0 1.16417,0.99483 11.77925,11.77925 0 0 0 2.24895,-0.37571 c 1.05834,-0.24871 3.048,-0.69321 3.63803,-0.87842 z"
       id="path96"
       style="fill:#0076ba;stroke-width:0.264583" />
    <path
       class="cls-2"
       d="m 38.138703,21.754086 h -0.0397 c 0,0 -4.49792,0.70643 -5.83671,1.05833 a 3.8126458,3.8126458 0 0 0 0.42598,0.83344 1.4049375,1.4049375 0 0 0 0.39952,0.30427 c 0.21431,0.037 3.048,-0.51329 4.66725,-0.82815 a 8.2497082,8.2497082 0 0 0 1.30969,-0.30427 c -0.34132,-0.37306 -0.65088,-0.73289 -0.92604,-1.06362 z"
       id="path98"
       style="fill:#0076ba;stroke-width:0.264583" />
    <path
       class="cls-2"
       d="m 36.614703,19.576566 a 2.9104166,2.9104166 0 0 0 -0.56357,0.0953 c -0.43921,0.12435 -3.175,0.61912 -3.83381,0.73818 a 3.8840833,3.8840833 0 0 0 -0.16933,1.41552 c 0.80962,0.2249 3.70416,-0.81491 4.95829,-0.91016 l 0.46302,-0.0503 a 11.20775,11.20775 0 0 1 -0.8546,-1.28852 z"
       id="path100"
       style="fill:#0076ba;stroke-width:0.264583" />
    <path
       class="cls-2"
       d="m 36.146383,17.568376 c -0.30956,0.0397 -0.73554,0.11377 -1.34937,0.23812 a 4.8312916,4.8312916 0 0 0 -1.73038,0.95515 5.8367083,5.8367083 0 0 0 -0.4445,0.68527 c 0.56092,0.0397 2.47386,-0.52917 3.59834,-0.74083 a 1.8229791,1.8229791 0 0 1 -0.0741,-1.13771 z"
       id="path102"
       style="fill:#0076ba;stroke-width:0.264583" />
    <path
       class="cls-1"
       d="m 38.030223,14.115566 c 0,0 0.35983,1.47902 2.64583,2.97127 2.286,1.49225 3.85233,1.2012 3.99785,1.18004 a 5.8525833,5.8525833 0 0 0 1.39436,-1.34409 1.4022916,1.4022916 0 0 0 0.0503,-0.98425 2.7596041,2.7596041 0 0 1 -1.20915,1.12448 c -0.68527,0.21432 -0.93927,0 -0.93927,0 a 4.3471041,4.3471041 0 0 0 0.68792,-1.32291 c 0.0556,-0.47096 0,-0.29104 0,-0.29104 0,0 -0.94456,1.29381 -1.54252,1.27529 -0.59796,-0.0185 -0.70115,-0.79375 -0.64559,-1.12448 0.0556,-0.33073 -0.8546,-0.73025 -0.8546,-0.73025 0,0 0.74083,0 1.01865,-0.26459 a 4.1089791,4.1089791 0 0 1 1.0107,-0.94985 2.2807083,2.2807083 0 0 1 1.12448,-0.0344 c 0,0 -0.10583,0.1958 -0.70908,0.4154 a 4.2333333,4.2333333 0 0 0 -1.22502,0.69321 2.3468541,2.3468541 0 0 0 -0.23548,0.26458 c 0,0 -0.48948,-0.09 -0.14552,0.1614 0.34396,0.25135 1.26471,0.87312 1.26471,0.87312 a 5.7864374,5.7864374 0 0 0 -0.93927,-0.4736 1.9420416,1.9420416 0 0 0 0.50535,0.56356 0.44979166,0.44979166 0 0 0 0.635,0 l 0.0344,-0.09 -1.24884,-0.96837 c 0,0 0.96309,-0.56092 1.19327,-0.67469 0.23019,-0.11377 0.635,-0.26458 0.635,-0.26458 a 2.5532291,2.5532291 0 0 1 -0.17991,0.30956 l -0.26459,0.32544 a 2.2516041,2.2516041 0 0 0 1.04511,-0.635 l 0.29369,-0.42069 a 2.6617083,2.6617083 0 0 0 0.28575,0.11112 h 0.09 c 0,0 0.30957,0 -0.17991,0.81757 a 5.4689374,5.4689374 0 0 1 -0.44979,0.73025 3.0850416,3.0850416 0 0 0 1.32291,-0.98425 c 0.47361,-0.67469 -0.56091,-1.51342 -0.83079,-1.65365 -0.26987,-0.14023 -0.43392,-0.40481 -1.87854,0 -1.44463,0.40481 -2.81252,1.00013 -3.10885,1.07421 -0.29634,0.0741 -0.72496,0.0741 -0.96309,0.56356 l -0.23548,0.47096 a 5.0270833,5.0270833 0 0 1 1.5875,0.92869 5.8208333,5.8208333 0 0 0 1.72244,1.32291 l 1.78858,0.82021 c 0,0 -0.56356,0.21961 -2.11666,-0.43921 -1.55311,-0.65881 -2.94746,-1.61925 -3.5269,-2.61937 a 1.3837708,1.3837708 0 0 1 0.16404,-1.6854 c 0,0 -0.89958,0.44186 -1.06891,0.9578 z"
       id="path104"
       style="fill:#333132;stroke-width:0.264583" />
    <path
       class="cls-1"
       d="m 39.533053,11.900996 c -0.61913,0.19579 -1.92352,0.56357 -2.1881,0.83873 0.10054,-0.19844 0,-0.6985 -0.23548,-0.79375 0,0 1.80975,-0.21431 2.58498,-0.37571 0.77522,-0.16139 1.34408,-0.61383 1.68804,-0.36512 0.34396,0.24871 0.60589,0.51064 0.81491,0.46567 0.20902,-0.045 0.30427,-0.38894 0.80963,-0.11907 0.50535,0.26988 2.07962,0.0794 2.18281,0.14288 0.10319,0.0635 0.40481,0.26458 0.56092,0.37041 0.1561,0.10584 0.52916,0.3863 0.56356,0.56092 0.0344,0.17463 0.12171,0.46831 0.20108,0.44979 0.0794,-0.0185 0.26459,0.20373 0.26459,0.32809 a 2.6855208,2.6855208 0 0 1 -0.10054,0.43127 c 0,-0.0953 -0.0397,-0.47625 -0.62971,-0.94457 a 5.2599166,5.2599166 0 0 0 -1.28852,-0.87047 l -0.21432,0.0714 c -0.0767,0.0529 -0.037,0.0688 -0.1905,0.12436 -0.15345,0.0556 -1.0795,0.24871 -0.80962,0 a 0.82549999,0.82549999 0 0 1 0.83344,-0.1614 0.72231249,0.72231249 0 0 0 0.1852,0 l 0.17463,-0.0582 a 1.778,1.778 0 0 0 -1.33879,0.0635 c -1.19856,0.47096 -0.52917,0.71967 -2.36273,0.56092 -1.83356,-0.15875 -0.75406,-0.26458 -1.56898,-0.24606 h -0.082 c -0.73025,0.33073 -1.6854,0.70908 -1.6854,0.70908 a 7.2972082,7.2972082 0 0 1 1.62454,-0.7329 7.7205416,7.7205416 0 0 0 1.16417,-0.56091 1.6933333,1.6933333 0 0 0 -0.95779,0.11112 z m 0.69056,0.33073 0.59002,-0.10054 -0.38629,0.17992 a 3.175,3.175 0 0 0 0.97631,0 0.39422916,0.39422916 0 0 0 0.10319,-0.24607 0.50799999,0.50799999 0 0 0 -0.6641,-0.19843 1.3546666,1.3546666 0 0 0 -0.61913,0.36512 z"
       id="path106"
       style="fill:#333132;stroke-width:0.264583" />
    <path
       class="cls-1"
       d="m 71.171923,21.357206 q 0,4.4159 -3.00831,6.79186 -3.00831,2.37595 -8.62012,2.38125 h -3.41842 v 11.43264 h -3.37344 v -29.07242 h 7.50623 q 10.91406,0 10.91406,8.46667 z m -15.04685,6.25211 h 3.04271 q 4.49792,0 6.50081,-1.44992 2.0029,-1.44992 2.00819,-4.65138 0,-2.8866 -1.89177,-4.29683 -1.89177,-1.41023 -5.88698,-1.41023 h -3.77296 z"
       id="path108"
       style="fill:#333132;stroke-width:0.264583" />
    <path
       class="cls-4"
       d="m 60.257863,12.890536 q 10.8929,0 10.8929,8.46667 0,4.4159 -3.00831,6.79186 -3.00832,2.37595 -8.62013,2.38125 h -3.41842 v 11.43264 h -3.37343 v -29.07242 h 7.52739 m -4.13279,14.72142 h 3.04271 q 4.49792,0 6.50081,-1.44992 2.0029,-1.44991 2.00819,-4.65137 0,-2.8866 -1.89177,-4.29683 -1.89177,-1.41023 -5.88698,-1.41288 h -3.77296 v 11.80836 m 4.16454,-15.85384 h -7.54062 a 1.1244792,1.1244792 0 0 0 -1.12448,1.12448 v 29.07242 a 1.1244792,1.1244792 0 0 0 1.12448,1.12448 h 3.37343 a 1.1244792,1.1244792 0 0 0 1.12448,-1.12448 v -10.29759 h 2.29394 c 3.98198,0 7.11465,-0.8837 9.31863,-2.61937 2.20398,-1.73567 3.43958,-4.3815 3.43958,-7.67292 0,-4.37621 -2.07963,-9.59379 -12.01473,-9.59379 z m -3.03212,5.17261 h 2.64583 c 2.40771,0 4.1619,0.39952 5.21229,1.18533 1.0504,0.78581 1.43934,1.83356 1.43934,3.37608 0,1.76477 -0.50536,2.98979 -1.53988,3.73857 -1.12448,0.8202 -3.10356,1.23825 -5.842,1.23825 h -1.91823 v -9.525 z"
       id="path110"
       style="fill:#ffffff;stroke-width:0.264583" />
    <path
       class="cls-1"
       d="m 24.703153,41.952376 -3.6195,-9.24454 H 9.4419934 l -3.57717,9.24454 h -3.429 L 13.924033,12.766186 h 2.84692 l 11.43,29.18619 z m -4.66725,-12.28725 -3.37343,-8.99584 q -0.65882,-1.69333 -1.35202,-4.19629 a 36.68977,36.68977 0 0 1 -1.24884,4.19365 l -3.41841,8.99583 z"
       id="path112"
       style="fill:#333132;stroke-width:0.264583" />
    <path
       class="cls-4"
       d="m 16.770953,12.766186 11.43,29.18619 h -3.4978 l -3.6195,-9.24454 H 9.4419934 l -3.57717,9.24454 h -3.429 L 13.924033,12.766186 h 2.84692 m -6.14098,16.89894 h 9.40593 l -3.37343,-8.99584 q -0.65882,-1.69333 -1.35202,-4.19629 a 36.68977,36.68977 0 0 1 -1.24884,4.19365 l -3.41841,8.99583 m 6.14098,-18.02341 h -2.84957 a 1.127125,1.127125 0 0 0 -1.05833,0.70908 L 1.4013035,41.539626 a 1.1218333,1.1218333 0 0 0 0.63765,1.45785 1.0847917,1.0847917 0 0 0 0.4074499,0.0794 h 3.42107 a 1.1324167,1.1324167 0 0 0 1.0451,-0.71438 l 3.2993596,-8.53016 h 10.1256 l 3.33904,8.53016 a 1.1324167,1.1324167 0 0 0 1.05833,0.71438 h 3.4978 a 1.1218333,1.1218333 0 0 0 1.05833,-1.52929 l -11.4591,-29.18619 a 1.1244792,1.1244792 0 0 0 -1.04511,-0.71438 z m -4.49792,16.89893 2.84427,-7.48506 c 0.0847,-0.23548 0.16404,-0.46567 0.24077,-0.6985 l 0.26458,0.70379 2.81252,7.47977 z"
       id="path114"
       style="fill:#ffffff;stroke-width:0.264583" />
  </g>
</svg>
